# xmcd CD database file
#
# Track frame offsets:
#	150
#	16784
#	32009
#	52736
#	72495
#	88247
#	106678
#	123618
#	140501
#	164835
#	184596
#	207619
#
# Disc length: 3100 seconds
#
# Revision: 0
# Processed by: cddbd v1.4PL0 Copyright (c) Steve Scherf et al.
# Submitted via: Feurio! 1.63 - http://www.feurio.com
#
DISCID=a90c1a0c
DTITLE=Anastacia - Freak of Natur
DYEAR=1900
DGENRE=
TTITLE0=Freak of Natur
TTITLE1=Paid my dues
TTITLE2=Overdue goodbye
TTITLE3=You'il never be alone
TTITLE4=One day in your life
TTITLE5=How come the world won't stop
TTITLE6=Why'd you lie to me
TTITLE7=Don'tcha wanna
TTITLE8=Secrets
TTITLE9=Don't stop (doint' it)
TTITLE10=I dreamed you
TTITLE11=Overdue goodbye (reprise)
EXTD=
EXTT0=
EXTT1=
EXTT2=
EXTT3=
EXTT4=
EXTT5=
EXTT6=
EXTT7=
EXTT8=
EXTT9=
EXTT10=
EXTT11=
PLAYORDER=
